<?xml version="1.0" encoding="UTF-8" standalone="no"?>
<!DOCTYPE svg PUBLIC "-//W3C//DTD SVG 1.1//EN" "http://www.w3.org/Graphics/SVG/1.1/DTD/svg11.dtd">
<svg width="100%" height="100%" viewBox="0 0 240 194" version="1.1" xmlns="http://www.w3.org/2000/svg" xmlns:xlink="http://www.w3.org/1999/xlink" xml:space="preserve" xmlns:serif="http://www.serif.com/" style="fill-rule:evenodd;clip-rule:evenodd;stroke-linejoin:round;stroke-miterlimit:2;">
    <g transform="matrix(1,0,0,1,0,-8.36979)">
        <g id="volcano" transform="matrix(0.328761,0,0,0.328761,-0.8959,7.969856)">
            <path d="M729.739,583.261C730.063,583.611 733.618,587.448 732.533,588.532C731.731,589.333 4.429,589.097 3.415,588.657C1.638,587.886 2.043,586.173 20.261,571.261L30.738,560.738C34.924,557.48 34.905,557.51 35.259,557.219C37.037,555.764 36.606,555.616 38.261,554.261L40.738,551.738C67.804,530.671 68.667,532.029 95.261,510.261L107.738,497.738C110.887,493.845 111.087,494.186 114.261,490.261L116.738,487.738C119.887,483.845 120.087,484.186 123.261,480.261L129.738,473.738C134.731,468.413 134.411,468.331 139.976,463.5L144.261,459.261C151.324,450.632 151.284,450.835 157.78,441.74C171.117,423.069 189.061,402.471 189.219,402.259C216.911,365.338 218.273,357.202 226.669,344.603C274.151,273.354 279.144,247.372 292.331,225.397C303.966,206.011 309.159,219.154 326.741,233.219C339.943,243.781 341.639,238.134 347.397,234.331C356.247,228.488 368.051,238.108 369.22,239.74C377.111,250.764 381.359,239.343 387.542,238.999C414.838,237.477 418.155,223.097 432.397,214.331C434.623,212.962 439.011,210.162 450.683,236.423C456.513,249.541 491.215,327.62 542.262,390.738L545.739,394.261C552.83,400.066 552.635,400.251 553.262,400.738L555.739,403.261C561.217,407.783 564.582,411.906 565.262,412.738L571.739,419.261C579.505,428.864 579.206,428.791 586.781,438.259C596.856,450.854 596.099,451.172 606.262,463.738L615.739,473.261C622.83,479.066 622.635,479.251 623.262,479.738L629.739,486.261C632.935,489.053 648.142,502.334 666.262,524.738L670.739,529.261C674.463,533.537 677.613,536.192 678.262,536.738L681.739,540.261C683.278,541.606 695.225,552.04 701.262,556.738L703.739,559.261C710.83,565.066 710.635,565.251 711.262,565.738L716.739,571.261C722.307,575.856 721.834,576.163 727.262,580.738L729.739,583.261ZM479.739,360.261L482.024,362.5C490.545,369.915 492.661,374.532 492.976,369.578C493.238,365.471 454.41,308.774 430.649,248.419C427.887,241.402 412.729,260.152 394.551,263.996C388.75,265.222 392.435,269.142 391.004,285.463C389.956,297.419 400.949,294.718 420.332,329.602C420.955,330.724 430.109,347.2 431.157,341.443C432.225,335.573 422.671,308.561 434.78,322.259C439.87,328.017 476.077,357.3 479.739,360.261ZM367.034,276.5C366.618,246.953 344.959,260.093 337.577,263.651C324.974,269.726 309.964,238.886 305.683,249.577C273.773,329.26 238.867,365.135 258.264,348.219C261.275,345.593 298.258,317.585 299.22,316.258C299.59,315.748 308.902,302.901 306.921,314.556C303.146,336.769 325.646,306.987 333.504,307.097C337.946,307.16 345.909,324.721 346.682,326.426C348.222,329.824 349.345,332.3 326.332,368.398C321.439,376.072 335.663,384.62 344.682,404.426C348.604,413.04 290.119,516.543 320.673,470.606C340.148,441.327 341.722,442.596 361.219,413.259C369.676,400.535 362.911,398.769 351.318,374.574C349.421,370.615 350.699,370.182 372.78,340.74C381.168,329.558 388.624,323.872 380.219,314.741C365.845,299.124 366.994,297.835 367.034,276.5ZM543.024,22.5C546.122,26.251 550.679,29.524 555.344,41.586C557.765,47.844 580.219,20.137 612.741,44.219C652.599,73.734 621.509,141.513 569.426,127.685C565.287,126.586 559.645,121.122 557.318,127.423C555.155,133.278 539.039,176.916 488.574,164.316C467.201,158.979 469.717,153.992 465.582,152.338C462.614,151.15 460.499,160.071 454.26,165.22C435.101,181.029 407.674,170.865 392.65,209.577C387.937,221.724 382.273,198.24 394.317,167.423C398.193,157.506 404.863,148.165 395.603,153.669C343.641,184.548 364.06,203.517 355.235,212.228C351.027,216.382 353.921,208.788 331.331,174.603C317.849,154.199 337.323,139.593 339.74,137.78C349.031,130.813 349.411,129.336 345.317,118.577C328.15,73.455 389.889,38.388 418.783,77.217C421.424,80.766 423.943,80.799 423.966,76.513C424.129,46.175 428.861,38.595 441.261,23.261L444.738,19.738C487.705,-11.994 519.483,3.593 538.739,18.261L543.024,22.5Z"/>
        </g>
    </g>
</svg>
