<?xml version="1.0" encoding="UTF-8" standalone="no"?>
<!DOCTYPE svg PUBLIC "-//W3C//DTD SVG 1.1//EN" "http://www.w3.org/Graphics/SVG/1.1/DTD/svg11.dtd">
<svg width="100%" height="100%" viewBox="0 0 240 176" version="1.1" xmlns="http://www.w3.org/2000/svg" xmlns:xlink="http://www.w3.org/1999/xlink" xml:space="preserve" xmlns:serif="http://www.serif.com/" style="fill-rule:evenodd;clip-rule:evenodd;stroke-linejoin:round;stroke-miterlimit:2;">
    <g transform="matrix(1,0,0,1,-0,-17.270911)">
        <g id="whirlpool" transform="matrix(0.336793,0,0,0.336793,-1.117631,16.328452)">
            <path d="M101.738,170.738C137.107,143.208 165.681,116.964 249.458,103.001C268.433,99.838 268.368,100.642 281.459,100.016C306.375,98.823 234.628,88.582 187.542,97.999C66.211,122.265 12.727,206.15 6.651,221.582C-3.24,246.703 4.823,165.38 87.397,110.331C189.45,42.295 346.113,31.744 455.393,101.676C480.564,117.784 416.426,47.286 315.556,27.079C187.86,1.498 122.897,39.223 166.405,20.426C206.293,3.193 385.448,-28.916 519.26,85.78C521.8,87.958 521.342,88.164 523.741,90.219C524.131,90.554 524.111,90.519 528.739,94.261L531.024,96.5L535.024,100.5C577.684,150.592 594.231,194.795 576.295,262.419C571.346,281.08 614.713,218.703 610.001,160.542C606.011,111.299 575.838,73.581 570.78,67.26C565.133,60.2 565.392,60.252 559.738,53.262L555.261,48.739C535.34,24.106 476.676,-7.657 514.423,7.682C527.72,13.086 568.438,38.26 582.26,49.78C664.192,118.068 699.294,246.407 593.26,343.22C553.98,379.083 493.044,394.317 483.574,396.685C482.888,396.856 461.81,402.125 476.497,401.983C579.53,400.984 640.237,344.011 647.261,338.261L649.738,335.738C666.982,322.316 696.568,283.04 706.684,242.574C709.149,232.716 711.891,211.358 714.683,218.399C716.633,223.316 717.259,260.385 709.004,287.45C681.616,377.255 581.899,432.048 519.542,443.999C494.324,448.832 380.133,485.856 254.397,418.669C237.759,409.777 210.062,383.076 221.667,400.398C229.068,411.447 237.293,421.495 238.739,423.261L255.024,439.5C257.019,441.19 292.311,477.78 372.426,500.684C406.386,510.393 458.871,514.417 466.458,514.999C476.474,515.767 476.394,516.65 476.321,517.46C475.851,522.659 379.559,527.651 352.574,519.316C330.579,512.522 266.525,513.874 181.74,443.22C177.043,439.305 177.402,439.079 172.738,435.262L167.261,429.739C153.152,412.292 108.502,373.79 107.968,293.504C107.731,257.982 127.496,224.912 130.669,219.603C139.437,204.933 113.027,226.354 90.331,260.397C60.632,304.946 53.651,374.081 93.332,433.603C109.814,458.326 141.476,488.444 115.259,468.781C101.496,458.457 101.992,458.11 88.738,447.262L83.261,441.739C57.51,409.898 48.838,405.62 36.004,353.55C16.018,272.461 70.958,204.529 79.261,194.261L83.738,189.738C86.888,185.844 87.087,186.186 90.261,182.261L101.738,170.738ZM232.976,257.5L238.261,252.261C245.399,246.824 244.939,246.339 252.397,242.331C254.517,241.193 267.523,234.205 281.577,235.057C290.655,235.608 258.197,246.18 251.921,277.556C237.857,347.88 328.755,375.411 329.272,375.062C331.43,373.604 327.709,374.556 304.023,354.5L300.738,351.262C298.48,348.503 281.213,327.406 283.053,310.358C283.154,309.419 284.757,308.443 292.262,317.738L294.739,320.261C308.331,331.387 312.924,339.918 352.55,352.004C367.796,356.654 399.762,358.073 405.574,356.684C427.753,351.385 453.999,354.936 495.976,318.5L500.261,314.261C509.472,303.009 509.492,303.273 510.219,302.259C527.313,278.431 534.18,241.321 528.917,253.719C519.155,276.714 519.275,276.891 502.781,295.741C453.034,352.594 365.778,329.305 376.318,325.256C389.034,320.372 411.744,335.498 458.976,294.5L462.976,290.5L466.261,287.261C474.066,277.932 474.061,277.999 478.682,266.577C479.534,264.472 484.04,247.396 484.032,245.496C483.965,230.399 486.476,212.187 464.78,183.26C422.546,126.948 330.181,122.64 348.677,129.022C377.77,139.061 381.766,131.66 424.262,164.738L433.739,174.261C436.826,178.079 456.672,202.618 452.921,232.556C451.035,247.612 432.719,272.478 435.314,260.453C440.399,236.889 427.578,206.122 404.397,190.669C302.027,122.425 202.65,190.673 200.305,196.404C196.014,206.887 247.93,160.169 327.574,181.315C348.969,186.996 380.704,212.459 364.401,206.951C256.451,170.482 206.779,244.343 201.999,275.542C201.106,281.374 196.211,313.324 221.217,346.743C235.056,365.238 221.784,339.154 219.315,330.574C205.736,283.38 229.304,262.075 232.976,257.5ZM506.5,471.034C537.844,475.171 520.462,491.723 510.577,495.683C482.734,506.834 441.033,494.789 469.397,477.331C479.507,471.109 503.489,471.043 506.5,471.034ZM525.5,62.966C495.289,58.979 479.396,33.814 494.45,30.004C515.827,24.594 548.163,60.871 525.5,62.966ZM121.342,416.5C107.725,422.315 95.911,400.583 94.315,394.574C83.918,355.412 132.549,389.205 121.342,416.5ZM674.401,269.5C680.506,294.848 647.917,300.749 655.318,284.426C663.211,267.02 672.509,269.081 674.401,269.5ZM566.738,98.261C572.484,104.494 566.27,111.267 561.669,104.397C552.012,89.979 566.262,97.84 566.738,98.261Z"/>
        </g>
    </g>
</svg>
