<?xml version="1.0" encoding="UTF-8" standalone="no"?>
<!DOCTYPE svg PUBLIC "-//W3C//DTD SVG 1.1//EN" "http://www.w3.org/Graphics/SVG/1.1/DTD/svg11.dtd">
<svg width="100%" height="100%" viewBox="0 0 240 210" version="1.1" xmlns="http://www.w3.org/2000/svg" xmlns:xlink="http://www.w3.org/1999/xlink" xml:space="preserve" xmlns:serif="http://www.serif.com/" style="fill-rule:evenodd;clip-rule:evenodd;stroke-linejoin:round;stroke-miterlimit:2;">
    <g id="abandoned_mine" transform="matrix(0.610063,0,0,0.610063,-1.577528,-1.375065)">
        <path d="M357.024,148.5C368.852,163.785 363.691,165.672 364.999,187.458C366.667,215.228 366.141,215.518 367.784,217.261C392.675,243.666 389.103,246.184 390.999,259.458C393.045,273.782 400.411,292.881 391.507,292.963C390.279,292.975 377.987,293.089 376.332,290.603C370.242,281.451 371.887,279.417 361.423,275.65C353.149,272.672 363.353,257.795 344.423,249.683C334.583,245.466 325.399,238.638 312.224,257.262C307.204,264.358 309.544,253.435 298.001,149.542C296.771,138.475 291.449,133.006 303.457,132.001C304.886,131.882 306.889,129.954 306.92,128.56C307.737,92.117 307.749,91.677 305.536,89.464C302.918,86.845 265.795,88.479 110.504,87.968C105.19,87.95 105.092,92.827 105.079,93.444C104.35,129.596 104.604,130.449 107.422,131.648C107.642,131.742 115.775,131.783 115.914,134.406C116.316,141.963 102.137,270.142 100.53,271.536C95.504,275.896 95.006,252.828 85.577,249.318C70.623,243.75 69.429,243.294 56.269,252.219C45.876,259.267 54.255,272.076 41.603,279.669C31.199,285.912 34.132,288.276 29.65,298.575C28.122,302.085 0.723,304.101 2.687,295.572C9.466,266.129 6.351,263.684 12.261,257.261L17.738,251.738C18.35,251.262 31.939,239.473 31.963,235.507C32.097,213.208 33.387,213.497 34.999,180.542C35.087,178.73 38.847,174.705 39.261,174.261L49.738,163.738C52.888,159.844 53.087,160.186 56.261,156.261L58.738,153.738C64.461,147.521 65.075,120.011 67.999,99.542C70.545,81.717 78.175,85.785 110.397,65.331C125.494,55.749 124.995,30.776 148.444,26.079C158.531,24.058 169.341,24.635 188.74,6.78C199.042,-2.701 212.592,5.222 234.458,7.999C243.234,9.113 254.511,38.098 262.444,38.921C292.426,42.03 300.211,52.929 302.22,55.74C311.297,68.449 311.001,68.913 324.603,76.331C345.446,87.701 330.95,120.347 343.739,134.261L346.024,136.5C349.805,141.079 349.991,140.683 353.739,145.261L357.024,148.5ZM259.261,165.739C247.342,151.001 226.889,132.096 234.487,132.033C244.327,131.952 246.201,128.964 254.781,139.259C262.952,149.065 263.702,149.297 264.139,148.349C264.141,148.344 262.26,136.524 262.096,135.495C261.511,131.816 287.641,131.405 287.921,135.439C290.264,169.186 300.653,252.301 301.921,262.444C303.81,277.554 298.572,276.027 297.336,278.395C293.198,286.323 294.267,287.936 290.507,287.963C282.804,288.02 280.606,291.643 277.319,284.574C275.624,280.932 277.191,280.638 273.001,234.542C267.533,174.394 266.347,173.125 262.738,169.262L259.261,165.739ZM259.966,189.5C260.871,195.132 259.742,195.146 266.999,260.458C268.564,274.543 267.533,275.124 266.455,274.741C262.665,273.392 247.608,252.864 242.405,259.424C241.887,260.078 246.112,267.759 247.406,267.914C248.424,268.035 257.007,269.06 256.904,276.504C256.859,279.672 251.822,278.501 252.688,280.449C255.92,287.717 255.413,289.429 263.457,289.998C266.022,290.18 275.684,303.688 270.571,303.928C265.83,304.151 264.736,305.633 267.332,309.602C270.575,314.562 271.589,317.84 273.439,317.921C284.701,318.41 284.303,320.565 289.656,330.425C292.304,335.303 279.606,332.985 280.688,335.449C283.634,342.159 288.854,345.941 281.507,345.963C267.287,346.008 263.286,349.752 258.682,336.423C257.154,331.999 255.019,334.372 155.505,333.967C150.051,333.944 152.153,345.942 145.507,345.963C145.507,345.963 127.232,346.8 126.345,344.58C124.883,340.919 134.156,333.773 127.514,334.024C119.962,334.309 121.769,330.768 123.668,327.602C129.058,318.619 129.838,318.602 138.448,318.01C139.763,317.919 147.462,304.344 145.745,304.114C143.295,303.786 137.107,305.887 140.668,299.602C144.785,292.338 144.146,290.585 152.457,290.002C154.055,289.89 161.489,280.869 156.418,278.649C154.718,277.905 155.176,269.135 163.457,268.001C166.501,267.585 170.464,259.306 168.744,259.115C153.575,257.428 142.988,289.814 144.921,268.556C152.947,180.276 151.557,179.655 154.78,175.74C157.63,172.28 188.785,134.443 191.425,133.35C192.376,132.956 220.677,132.656 221.52,133.476C224.772,136.642 222.539,138.33 258.216,176.739C258.918,177.494 258.071,177.653 259.966,189.5ZM234.5,290.034C235.968,289.864 242.129,293.034 238.682,284.423C235.066,275.388 232.296,279.053 222.5,279.035C177.268,278.952 175.297,277.988 173.318,283.423C169.881,292.86 176.422,289.971 186.5,289.965C210.603,289.951 210.406,289.959 234.5,290.034ZM200.5,318.034C250.084,318.034 251.927,318.509 251.312,316.551C250.984,315.504 247.418,304.141 245.603,304.082C239.359,303.881 239.415,304.196 167.505,303.967C167.014,303.965 165.708,303.061 160.306,315.425C159.016,318.378 161.837,317.932 200.5,318.034ZM186.5,267.034C226.192,267.034 231.2,267.576 230.741,265.458C228.442,254.846 224.371,259.053 213.5,259.035C195.325,259.003 184.373,258.448 183.336,260.394C183.124,260.791 181.014,264.748 181.075,265.545C181.22,267.425 182.088,266.593 186.5,267.034ZM298.942,123.5C294.811,125.28 294.644,124.966 221.5,124.966C149.019,124.966 120.099,124.975 117.444,124.921C111.199,124.795 112.89,107.882 113.079,99.44C113.09,98.99 113.158,95.953 117.504,95.968C215.668,96.291 295.913,95.608 297.578,96.351C300.593,97.698 299.08,121.33 298.942,123.5ZM272.968,109.504C274.173,119.185 287.42,111.841 280.26,105.784C275.303,101.59 273.153,108.876 272.968,109.504ZM134.5,104.97C133.833,105.167 126.769,107.249 130.332,112.603C135.757,120.754 144.399,106.787 134.5,104.97ZM119.034,186.5C122.02,167.836 122.364,132.928 127.505,132.966C142.447,133.075 151.246,126.725 148.999,141.542C146.968,154.938 158.036,137.614 158.78,136.74C166.706,127.442 177.084,131.724 178.585,132.343C179.887,132.88 180.648,134.403 169.22,147.26C150.912,167.855 147.056,166.342 144.921,185.556C133.996,283.887 137.085,286.966 131.457,288.002C106.683,292.56 108.813,275.563 109.079,273.444C119.111,193.402 117.923,193.412 119.034,186.5ZM330.5,310.966C323.536,310.48 323.204,309.965 320.23,303.668C318.957,300.973 289.21,308.272 303.332,281.397C305.069,278.092 313.368,276.431 315.682,270.577C317.293,266.504 319.895,245.429 344.389,258.705C350.733,262.143 347.532,278.947 355.424,281.685C368.031,286.059 366.304,288.551 372.294,300.603C379.025,314.143 333.026,310.966 330.5,310.966ZM56.5,308.966C54.89,308.87 37.575,307.84 37.079,303.56C36.791,301.068 39.136,290.339 44.397,287.331C48.711,284.866 52.383,287.271 56.684,270.574C56.786,270.178 58.379,249.253 80.574,256.319C88.509,258.844 87.462,276.88 95.424,279.685C97.107,280.278 107.867,284.069 108.921,297.444C109.699,307.307 87.324,310.112 78.423,306.683C69.962,303.423 69.721,304.921 61.574,308.682C61.205,308.852 61.198,308.703 56.5,308.966Z"/>
    </g>
</svg>
